# xmcd
#
# Track frame offsets: 
#        150
#        16784
#        28285
#        43398
#        60621
#
# Disc length: 1051 seconds
#
# Revision: 3
# Processed by: cddbd v1.5.2PL0 Copyright (c) Steve Scherf et al.
# Submitted via: ExactAudioCopy v0.90b4
#
DISCID=3e041905
DTITLE=Michael Kiwanuka - Home Again [CD2 - Ethan Johns Session)
DYEAR=2012
DGENRE=Rock
TTITLE0=They Say I'm Doing Just Fine
TTITLE1=Now I'm Seeing
TTITLE2=Ode To You
TTITLE3=I'll Get Along
TTITLE4=I Won't Lie
EXTD=
EXTT0=
EXTT1=
EXTT2=
EXTT3=
EXTT4=
PLAYORDER=
